<?xml version="1.0" encoding="iso-8859-1"?>
<!-- Uploaded to: SVG Repo, www.svgrepo.com, Generator: SVG Repo Mixer Tools -->
<!DOCTYPE svg PUBLIC "-//W3C//DTD SVG 1.1//EN" "http://www.w3.org/Graphics/SVG/1.1/DTD/svg11.dtd">
<svg fill="#000000" version="1.1" id="Capa_1" xmlns="http://www.w3.org/2000/svg" xmlns:xlink="http://www.w3.org/1999/xlink" 
	 width="800px" height="800px" viewBox="0 0 31.812 31.812"
	 xml:space="preserve">
<g>
	<path d="M7.152,5.934L7.152,5.934H2.434v15.38h4.718V5.934z M6.505,20.669H3.079V6.58h3.426V20.669z M5.987,8.85H3.595v-0.66h2.392
		V8.85z M3.598,9.279h2.394V9.94H3.598V9.279z M5.987,18.952H3.595v-0.66h2.392V18.952z M12.181,7.29l3.259,14.215l4.6-1.055
		L16.602,5.458l-4.42,1.012V5.941H7.463v15.381h4.718V7.29z M16.118,6.232l3.146,13.733l-3.341,0.766L12.777,6.998L16.118,6.232z
		 M11.536,20.678H8.11v-1.521h3.427L11.536,20.678L11.536,20.678z M10.967,17.428v0.614H8.6v-0.614H10.967z M8.6,17.015v-0.615
		h2.367v0.615H8.6z M11.536,15.285H8.11V6.589h3.427L11.536,15.285L11.536,15.285z M11.02,8.85H8.626v-0.66h2.394V8.85z
		 M16.904,16.104l-1.792-7.815l0.597-0.137l1.791,7.815L16.904,16.104z M16.295,16.242l-0.599,0.136l-1.773-7.819l0.599-0.136
		L16.295,16.242z M22.268,7.603v4.089l3.102,2.065l-3.24,2.008l0.016,0.023l-0.008,0.003v4.103h-0.428h-0.814v1.386h10.438v-1.385
		H31.33h-1.537v-4.097L26.65,13.76l3.279-2.033l-0.013-0.024l0.005-0.005V7.603h1.407V6.217h-1.407h-0.65H22.92h-0.652h-1.375v1.386
		h0.814H22.268z M29.139,16.271v3.623h-6.352v-3.738l3.203-1.985L29.139,16.271z M22.92,7.603h6.352v3.732l-3.252,2.016l-3.1-2.012
		V7.603z M28.883,11.014l-2.865,1.78l-2.705-1.787V9.478h5.57V11.014z M25.973,18.27l1.428,0.56l1.396,0.172v0.586h-5.647v-0.586
		l1.533-0.207L25.973,18.27z M31.812,22.771v4.688H0v-4.688h0.045V4.353h1.133v18.333h30.571v0.086H31.812z"/>
</g>
</svg>